<svg id="Spine_Logo" data-name="Spine Logo" xmlns="http://www.w3.org/2000/svg" viewBox="0 0 104 31.16">
    <defs>
        <style>.cls-1{fill:#f1f1f2;}.cls-2{fill:#ff4000;}</style>
    </defs>
    <title>spine_logo_bright</title>
    <path id="e" class="cls-1"
          d="M524.5,273.68a1.31,1.31,0,0,1-.37,1,1.28,1.28,0,0,1-.85.31H512.07a10.51,10.51,0,0,0,.29,2.55,4.92,4.92,0,0,0,1,1.95A4.27,4.27,0,0,0,515,280.8a6.89,6.89,0,0,0,2.6.44,10.66,10.66,0,0,0,2.17-.2,12.81,12.81,0,0,0,1.64-.44q.69-.25,1.14-.44a1.87,1.87,0,0,1,.68-.2.44.44,0,0,1,.24.07.43.43,0,0,1,.16.2,1.38,1.38,0,0,1,.09.37,4.9,4.9,0,0,1,0,.58,4.15,4.15,0,0,1,0,.43c0,.12,0,.23,0,.32a.83.83,0,0,1-.09.26,1.1,1.1,0,0,1-.17.22,2.77,2.77,0,0,1-.61.34,8.94,8.94,0,0,1-1.32.46,18.54,18.54,0,0,1-1.88.41,13.78,13.78,0,0,1-2.28.18,10.55,10.55,0,0,1-3.68-.59,6.82,6.82,0,0,1-2.66-1.74,7.44,7.44,0,0,1-1.63-2.89,13.48,13.48,0,0,1-.55-4,12.76,12.76,0,0,1,.57-3.94,8.35,8.35,0,0,1,1.64-3,7.15,7.15,0,0,1,2.58-1.87,8.47,8.47,0,0,1,3.39-.65,8.19,8.19,0,0,1,3.41.64,6.46,6.46,0,0,1,2.32,1.73,7,7,0,0,1,1.33,2.55,11.17,11.17,0,0,1,.43,3.13Zm-3.14-.93a5.69,5.69,0,0,0-1.09-3.86,4.17,4.17,0,0,0-3.42-1.4,4.52,4.52,0,0,0-2,.44,4.41,4.41,0,0,0-1.47,1.15,5.29,5.29,0,0,0-.91,1.67,7,7,0,0,0-.36,2Z"
          transform="translate(-420.5 -261)"/>
    <path id="n" class="cls-1"
          d="M501.18,282.94a.42.42,0,0,1-.08.26.59.59,0,0,1-.25.18,1.74,1.74,0,0,1-.47.11,6.32,6.32,0,0,1-.76,0,6.5,6.5,0,0,1-.78,0,1.74,1.74,0,0,1-.47-.11.59.59,0,0,1-.25-.18.42.42,0,0,1-.08-.26V273a9.8,9.8,0,0,0-.23-2.35,4.86,4.86,0,0,0-.66-1.53,2.88,2.88,0,0,0-1.13-1,3.57,3.57,0,0,0-1.6-.34,4,4,0,0,0-2.35.83,12.71,12.71,0,0,0-2.46,2.44v11.9a.42.42,0,0,1-.08.26.59.59,0,0,1-.25.18,1.74,1.74,0,0,1-.47.11,6.51,6.51,0,0,1-.78,0,6.31,6.31,0,0,1-.76,0,1.88,1.88,0,0,1-.48-.11.52.52,0,0,1-.25-.18.46.46,0,0,1-.07-.26v-17a.53.53,0,0,1,.06-.26.5.5,0,0,1,.23-.19,1.28,1.28,0,0,1,.44-.11,8.53,8.53,0,0,1,1.39,0,1.12,1.12,0,0,1,.43.11.6.6,0,0,1,.22.19.47.47,0,0,1,.07.26v2.25a10.46,10.46,0,0,1,2.87-2.36,6.17,6.17,0,0,1,2.88-.75,6.41,6.41,0,0,1,2.87.58,5.16,5.16,0,0,1,1.88,1.54,6.15,6.15,0,0,1,1,2.26,13.46,13.46,0,0,1,.31,3.11Z"
          transform="translate(-420.5 -261)"/>
    <g id="i">
        <path class="cls-2"
              d="M463.85,263.86c.09,2.6,1.89,4,5.48,4.61,3,.48,5.79.24,6.69-2.37,1.75-5.09-2.4-3.82-6-4.39S463.71,259.68,463.85,263.86Z"
              transform="translate(-420.5 -261)"/>
        <path class="cls-2"
              d="M464.93,274.55c.33,1.94,2.14,3.06,4.91,3s4.84-1.16,5.13-3.25c.53-3.88-2.53-2.38-5.3-2.3S464.27,270.74,464.93,274.55Z"
              transform="translate(-420.5 -261)"/>
        <path class="cls-2"
              d="M468.53,283.44c.55,1.45,2.06,2.06,4.1,1.63s3.45-1.11,3.33-2.76c-.21-3.06-2.22-2.1-4.26-1.66S467.46,280.6,468.53,283.44Z"
              transform="translate(-420.5 -261)"/>
        <path class="cls-2"
              d="M470.28,290.22c.16,1.22,1.22,1.95,2.88,1.93s2.92-.67,3.13-2c.4-2.43-1.46-1.53-3.12-1.51S470,287.82,470.28,290.22Z"
              transform="translate(-420.5 -261)"/>
    </g>
    <path id="p" class="cls-1"
          d="M455.78,274.16a15.33,15.33,0,0,1-.48,4,8.75,8.75,0,0,1-1.42,3,6.35,6.35,0,0,1-2.32,1.91,7.14,7.14,0,0,1-3.16.67,6.1,6.1,0,0,1-1.4-.15,5.34,5.34,0,0,1-1.26-.47,7.29,7.29,0,0,1-1.22-.81q-.61-.49-1.29-1.15v8.51a.47.47,0,0,1-.08.26.56.56,0,0,1-.25.19,1.74,1.74,0,0,1-.47.11,6.47,6.47,0,0,1-.78,0,6.27,6.27,0,0,1-.76,0,1.89,1.89,0,0,1-.48-.11.49.49,0,0,1-.25-.19.51.51,0,0,1-.07-.26V265.91a.57.57,0,0,1,.06-.27.46.46,0,0,1,.23-.18,1.47,1.47,0,0,1,.44-.1,7.41,7.41,0,0,1,1.3,0,1.45,1.45,0,0,1,.43.1.52.52,0,0,1,.24.18.51.51,0,0,1,.07.27v2.29a18.06,18.06,0,0,1,1.49-1.38,9,9,0,0,1,1.45-1,6.82,6.82,0,0,1,1.49-.59,7.09,7.09,0,0,1,4.78.52,6,6,0,0,1,2.13,2,8.79,8.79,0,0,1,1.2,2.9A15.72,15.72,0,0,1,455.78,274.16Zm-3.24.36a15.64,15.64,0,0,0-.2-2.53,7.32,7.32,0,0,0-.69-2.17,4.06,4.06,0,0,0-1.3-1.51,3.49,3.49,0,0,0-2-.57,4.1,4.1,0,0,0-1.2.18,4.92,4.92,0,0,0-1.2.57,8.54,8.54,0,0,0-1.28,1,15.77,15.77,0,0,0-1.41,1.56v6.77a13.53,13.53,0,0,0,2.46,2.4,4.12,4.12,0,0,0,2.44.83,3.56,3.56,0,0,0,2-.57,4.28,4.28,0,0,0,1.37-1.51,7.58,7.58,0,0,0,.77-2.12A11.43,11.43,0,0,0,452.55,274.52Z"
          transform="translate(-420.5 -261)"/>
    <path id="s" class="cls-1"
          d="M432.55,278.3a5.39,5.39,0,0,1-.48,2.33,4.73,4.73,0,0,1-1.37,1.72,6.19,6.19,0,0,1-2.12,1.06,9.62,9.62,0,0,1-2.71.36,10.38,10.38,0,0,1-3.21-.5,7.63,7.63,0,0,1-1.11-.45,3.25,3.25,0,0,1-.66-.43,1.09,1.09,0,0,1-.3-.53,3.59,3.59,0,0,1-.09-.93,4.06,4.06,0,0,1,0-.61,2,2,0,0,1,.09-.4.42.42,0,0,1,.16-.22.43.43,0,0,1,.24-.07,1.35,1.35,0,0,1,.61.26q.41.26,1,.56a9.22,9.22,0,0,0,1.41.56,6.25,6.25,0,0,0,1.87.26,5.62,5.62,0,0,0,1.44-.17,3.48,3.48,0,0,0,1.12-.5,2.23,2.23,0,0,0,.73-.84,2.68,2.68,0,0,0,.26-1.21,2,2,0,0,0-.37-1.21,3.55,3.55,0,0,0-1-.87,8.09,8.09,0,0,0-1.36-.67l-1.56-.61a16,16,0,0,1-1.57-.73,6,6,0,0,1-1.37-1,4.52,4.52,0,0,1-1-1.4,4.69,4.69,0,0,1-.37-1.95,4.88,4.88,0,0,1,.39-1.92,4.46,4.46,0,0,1,1.16-1.61,5.83,5.83,0,0,1,1.94-1.11,8.06,8.06,0,0,1,2.71-.42,8.28,8.28,0,0,1,1.36.11,9.36,9.36,0,0,1,1.23.28,5.92,5.92,0,0,1,.94.37,4.09,4.09,0,0,1,.59.35,1,1,0,0,1,.26.26.83.83,0,0,1,.09.26q0,.14.06.35a3.88,3.88,0,0,1,0,.51,4.76,4.76,0,0,1,0,.56,1.39,1.39,0,0,1-.09.39.5.5,0,0,1-.16.22.35.35,0,0,1-.21.07,1,1,0,0,1-.49-.21,7,7,0,0,0-.83-.44,9.26,9.26,0,0,0-1.2-.44,5.49,5.49,0,0,0-1.58-.21,4.93,4.93,0,0,0-1.4.18,2.69,2.69,0,0,0-1,.51,2.16,2.16,0,0,0-.59.79,2.43,2.43,0,0,0-.2,1,2,2,0,0,0,.38,1.24,3.6,3.6,0,0,0,1,.88,8.25,8.25,0,0,0,1.38.68l1.58.62q.8.32,1.59.72a6,6,0,0,1,1.39,1,4.37,4.37,0,0,1,1,1.36A4.46,4.46,0,0,1,432.55,278.3Z"
          transform="translate(-420.5 -261)"/>
</svg>